<svg width="32" height="32" viewBox="0 0 32 32" fill="none" xmlns="http://www.w3.org/2000/svg">
<path d="M16 23.0323L10.4666 26.3656C10.2222 26.5212 9.96662 26.5878 9.69995 26.5656C9.43328 26.5434 9.19995 26.4545 8.99995 26.299C8.79995 26.1434 8.64439 25.9492 8.53328 25.7163C8.42217 25.4834 8.39995 25.2221 8.46662 24.9323L9.93328 18.6323L5.03328 14.399C4.81106 14.199 4.67239 13.971 4.61728 13.715C4.56217 13.459 4.57862 13.2092 4.66662 12.9656C4.75462 12.7221 4.88795 12.5221 5.06662 12.3656C5.24528 12.2092 5.48973 12.1092 5.79995 12.0656L12.2666 11.499L14.7666 5.56563C14.8777 5.29896 15.0502 5.09896 15.284 4.96562C15.5177 4.83229 15.7564 4.76562 16 4.76562C16.2435 4.76563 16.4822 4.83229 16.716 4.96562C16.9497 5.09896 17.1222 5.29896 17.2333 5.56563L19.7333 11.499L26.1999 12.0656C26.5111 12.1101 26.7555 12.2101 26.9333 12.3656C27.1111 12.5212 27.2444 12.7212 27.3333 12.9656C27.4222 13.2101 27.4391 13.4603 27.3839 13.7163C27.3288 13.9723 27.1897 14.1998 26.9666 14.399L22.0666 18.6323L23.5333 24.9323C23.6 25.2212 23.5777 25.4825 23.4666 25.7163C23.3555 25.9501 23.2 26.1443 23 26.299C22.8 26.4536 22.5666 26.5425 22.3 26.5656C22.0333 26.5887 21.7777 26.5221 21.5333 26.3656L16 23.0323Z" fill="#F3993F"/>
</svg>
